<?xml version="1.0" standalone="no"?>
<!DOCTYPE svg PUBLIC "-//W3C//DTD SVG 20010904//EN"
 "http://www.w3.org/TR/2001/REC-SVG-20010904/DTD/svg10.dtd">
<svg version="1.0" xmlns="http://www.w3.org/2000/svg"
 wwidth="32px" height="32px" viewBox="0 0 128.000000 128.000000"
 preserveAspectRatio="xMidYMid meet">
<metadata>
Created by potrace 1.15, written by Peter Selinger 2001-2017
</metadata>
<g transform="translate(0.000000,128.000000) scale(0.100000,-0.100000)"
fill="#000000" stroke="none">
<path d="M587 1198 c-14 -13 -151 -243 -306 -512 -278 -484 -281 -489 -281
-546 0 -51 2 -58 25 -68 19 -9 190 -12 618 -12 678 0 637 -5 637 82 0 48 -14
75 -285 547 -157 273 -295 504 -307 514 -28 24 -72 21 -101 -5z m164 -444 c59
-34 69 -68 69 -242 0 -153 0 -153 23 -150 14 2 21 9 21 21 -1 9 2 17 6 17 14
0 120 -51 120 -58 0 -8 -96 -92 -104 -92 -3 0 -3 7 1 17 7 17 16 18 -132 -3
-44 -7 -45 -6 -45 20 l0 27 -36 -28 c-29 -21 -50 -28 -99 -31 -107 -7 -155 38
-155 145 0 111 66 163 207 163 l83 0 0 36 c0 77 -40 98 -167 88 l-83 -7 0 46
0 46 43 4 c98 10 212 2 248 -19z"/>
<path d="M564 466 c-35 -16 -49 -51 -35 -89 5 -13 17 -27 26 -31 32 -12 90 -6
123 14 29 18 32 24 32 70 l0 50 -57 0 c-32 -1 -72 -7 -89 -14z"/>
</g>
</svg>
