<svg id="Layer_1" data-name="Layer 1" xmlns="http://www.w3.org/2000/svg" viewBox="0 0 75 80" width="28" height="28">
	<defs>
		<style>.cls-1{fill:#231f20;}.cls-2{fill:#101820;}</style>
	</defs>
	<title>titanium-sdk_product</title>
	<path class="cls-1" d="M68.24,17a3,3,0,0,1,2.44,1,5,5,0,0,1,.89,3.86c-.75,5.78-3.68,10.63-6.79,15.76l-.11.18c-.07.13-.25.45-.63,1.19L55.77,29c1.27-2.32,4-7.26,5.37-10,.27-.53.38-.57.61-.66A20.69,20.69,0,0,1,68,17h.22m0-1.76h-.3a22.06,22.06,0,0,0-6.79,1.48,2.66,2.66,0,0,0-1.58,1.5c-1.46,2.85-4.42,8.26-5.92,11L64.38,42.12c.14-.26,1.63-3.17,1.79-3.44,3.16-5.22,6.34-10.4,7.14-16.62.42-3.22-1-6.81-5.07-6.81Z"/>
	<path class="cls-1" d="M6.84,17a18.08,18.08,0,0,1,6.58,1.55l0,0c1.41,2.49,2.83,5.05,4.19,7.52l.71,1.28a15.5,15.5,0,0,0,1.72,2l.57.64c-1.35,1.54-2.78,3-4.17,4.36-1.57,1.56-3.17,3.17-4.66,4.93a10.78,10.78,0,0,1-1.53-1.56C7.38,33.23,4.68,28.72,3.6,23.66a13.91,13.91,0,0,1,0-4.81c.15-1,1.41-1.74,2.55-1.81.24,0,.49,0,.73,0h0m0-1.76-.85,0c-1.94.13-3.9,1.4-4.17,3.33A15.9,15.9,0,0,0,1.88,24c1.15,5.41,4,10.08,6.93,14.7.41.65,2.5,2.79,3.34,2.79a.31.31,0,0,0,.25-.11C15.63,37.33,19.62,34.18,23,30a44.78,44.78,0,0,1-3.13-3.43c-1.65-3-3.28-5.94-4.95-8.88a1.84,1.84,0,0,0-.88-.72,19.44,19.44,0,0,0-7.23-1.68ZM23,29.94v0h0s0,0,0,0Z"/>
	<path class="cls-1" d="M47.18,39.47a103.55,103.55,0,0,1,8.25,10.4L53,52.42c-1.4,1.49-2.85,3-3.76,4l-1.46,1.63,1.91,1.08,2,1.12c2.1,1.17,4.26,2.38,6.41,3.63a1.29,1.29,0,0,1,.41.35,16.56,16.56,0,0,1,1.61,7.51,3,3,0,0,1-2.81,2.94c-.28,0-.55,0-.83,0a16.67,16.67,0,0,1-5.85-1.15,41.46,41.46,0,0,1-5.73-2.76C43.43,70,42,69.07,40.47,68.09L38.4,66.77l-1-.61-1,.66c-4.56,3.16-9.09,6.1-14.38,7.42a9.78,9.78,0,0,1-2.51.35A8.93,8.93,0,0,1,18,74.45a3.94,3.94,0,0,1-3-4.1,13.05,13.05,0,0,1,1.41-5.91l0-.09a5.23,5.23,0,0,1,1.14-.83c1.87-1.1,3.56-2,5.35-3l2.44-1.35,1.89-1L25.8,56.47c-.81-.93-2-2.28-3.3-3.7l-2.59-2.89,5.72-7.26L28,39.67l3.68,3.76L36.07,48l1.24,1.26L38.56,48l4.9-4.84,3.72-3.68m0-2.52-9.91,9.79c-2.36-2.41-6.77-7-9.5-9.73L17.62,49.94c1.79,2.05,5.22,5.8,6.86,7.69-2.67,1.48-5.08,2.76-7.83,4.37-.6.35-1.68,1.07-1.88,1.69a14.82,14.82,0,0,0-1.58,6.69,5.71,5.71,0,0,0,4.4,5.78,11,11,0,0,0,2,.19,11.72,11.72,0,0,0,2.93-.4c5.58-1.39,10.35-4.49,15-7.69,2.21,1.39,4.36,2.85,6.61,4.1C48,74.53,52,76.5,56.52,76.5q.46,0,.93,0a4.74,4.74,0,0,0,4.47-4.62,18.58,18.58,0,0,0-1.76-8.3A2.91,2.91,0,0,0,59,62.38c-2.86-1.65-5.75-3.25-8.44-4.76,1.73-1.92,5.55-5.88,7.1-7.61A106,106,0,0,0,47.23,37Z"/>
	<path class="cls-2" d="M3.92,14.71C7.37,11.22,10.9,7.49,14.61,4c1.8-1.71,4.26-1.52,6.42-.9a57.56,57.56,0,0,1,8.41,3.16,42.84,42.84,0,0,1,6.47,3.86,2.3,2.3,0,0,0,3.14,0A45.83,45.83,0,0,1,51.7,3.62a22.51,22.51,0,0,1,3.82-.78A6.61,6.61,0,0,1,61.58,5c2.73,2.93,5.63,5.7,8.45,8.54.33.34.64.7,1.22,1.34-4.5-1.18-8.22.17-11.81,1.87-3,1.43-5.92,3.17-9.09,4.89l4.7,4.79c1.25,1.26,2.63,2.42,3.76,3.78a94.27,94.27,0,0,1,6.7,8.65C69,44.27,72.66,49.66,74,56.16c.67,3.21.25,6-2.41,8.32-2.86,2.52-5.43,5.38-8.13,8.09-.31.31-.64.6-1.17,1.1,1.27-5.33-.82-9.68-2.9-14-2.33-4.83-5.64-9-8.94-13.17A109.51,109.51,0,0,0,38.69,33.28l-1.28-1.15C35,34.61,32.53,37,30.26,39.5S26,44.54,24,47.14C19.41,53,15,59,12.91,66.33A10.87,10.87,0,0,0,13,74c-.54-.5-.82-.74-1.08-1-3-3-5.9-6.08-9-9A7.09,7.09,0,0,1,.79,57.36a28.45,28.45,0,0,1,3.34-9.52,78.55,78.55,0,0,1,11-16.28c2.63-2.86,5.37-5.63,8.07-8.43.39-.41.84-.78,1.47-1.36C18,18,12,13.35,3.92,14.71Z"/>
</svg>
